<svg xmlns="http://www.w3.org/2000/svg" xmlns:xlink="http://www.w3.org/1999/xlink" width="150" zoomAndPan="magnify" viewBox="0 0 112.5 37.5" height="50" preserveAspectRatio="xMidYMid meet" version="1.0"><defs><g/></defs><g fill="#00bf63" fill-opacity="1"><g transform="translate(2.658632, 22.302631)"><g><path d="M 10.46875 -14.484375 L 13.28125 -14.484375 L 13.28125 0 L 10.265625 0 L 4.34375 -10.34375 L 4.3125 -10.34375 L 4.3125 0 L 1.484375 0 L 1.484375 -14.484375 L 4.671875 -14.484375 L 10.421875 -4.390625 L 10.46875 -4.390625 Z M 10.46875 -14.484375 "/></g></g></g><g fill="#00bf63" fill-opacity="1"><g transform="translate(17.425435, 22.302631)"><g><path d="M 8.75 -5.375 C 8.75 -6.394531 8.535156 -7.191406 8.109375 -7.765625 C 7.691406 -8.347656 7.054688 -8.640625 6.203125 -8.640625 C 5.398438 -8.640625 4.769531 -8.367188 4.3125 -7.828125 C 3.863281 -7.285156 3.640625 -6.46875 3.640625 -5.375 C 3.640625 -4.289062 3.859375 -3.472656 4.296875 -2.921875 C 4.742188 -2.367188 5.378906 -2.09375 6.203125 -2.09375 C 7.046875 -2.09375 7.679688 -2.378906 8.109375 -2.953125 C 8.535156 -3.523438 8.75 -4.332031 8.75 -5.375 Z M 11.65625 -5.375 C 11.65625 -3.613281 11.148438 -2.226562 10.140625 -1.21875 C 9.140625 -0.21875 7.828125 0.28125 6.203125 0.28125 C 4.609375 0.28125 3.296875 -0.21875 2.265625 -1.21875 C 1.242188 -2.21875 0.734375 -3.601562 0.734375 -5.375 C 0.734375 -7.15625 1.242188 -8.539062 2.265625 -9.53125 C 3.296875 -10.519531 4.609375 -11.015625 6.203125 -11.015625 C 7.835938 -11.015625 9.15625 -10.503906 10.15625 -9.484375 C 11.15625 -8.472656 11.65625 -7.101562 11.65625 -5.375 Z M 11.65625 -5.375 "/></g></g></g><g fill="#00bf63" fill-opacity="1"><g transform="translate(29.826395, 22.302631)"><g><path d="M 11 0 L 8.296875 0 L 8.296875 -1.515625 L 8.265625 -1.515625 C 7.546875 -0.316406 6.453125 0.28125 4.984375 0.28125 C 3.847656 0.28125 2.953125 -0.0507812 2.296875 -0.71875 C 1.648438 -1.382812 1.328125 -2.367188 1.328125 -3.671875 L 1.328125 -10.75 L 4.15625 -10.75 L 4.15625 -4.078125 C 4.15625 -3.398438 4.3125 -2.898438 4.625 -2.578125 C 4.945312 -2.253906 5.40625 -2.09375 6 -2.09375 C 6.632812 -2.09375 7.15625 -2.304688 7.5625 -2.734375 C 7.96875 -3.160156 8.171875 -3.765625 8.171875 -4.546875 L 8.171875 -10.75 L 11 -10.75 Z M 11 0 "/></g></g></g><g fill="#00bf63" fill-opacity="1"><g transform="translate(42.20764, 22.302631)"><g><path d="M 1.375 -10.75 L 4.09375 -10.75 L 4.09375 -8.875 L 4.125 -8.875 C 4.457031 -9.582031 4.851562 -10.113281 5.3125 -10.46875 C 5.78125 -10.832031 6.367188 -11.015625 7.078125 -11.015625 C 7.265625 -11.015625 7.445312 -11.003906 7.625 -10.984375 L 7.625 -8.109375 C 7.488281 -8.140625 7.21875 -8.15625 6.8125 -8.15625 C 5.925781 -8.15625 5.269531 -7.941406 4.84375 -7.515625 C 4.414062 -7.085938 4.203125 -6.445312 4.203125 -5.59375 L 4.203125 0 L 1.375 0 Z M 1.375 -10.75 "/></g></g></g><g fill="#00bf63" fill-opacity="1"><g transform="translate(50.172645, 22.302631)"><g><path d="M 4.203125 -12.015625 L 1.375 -12.015625 L 1.375 -14.640625 L 4.203125 -14.640625 Z M 4.203125 -10.75 L 4.203125 0 L 1.375 0 L 1.375 -10.75 Z M 4.203125 -10.75 "/></g></g></g><g fill="#00bf63" fill-opacity="1"><g transform="translate(55.761949, 22.302631)"><g><path d="M 7.390625 -7.453125 C 7.328125 -7.921875 7.148438 -8.28125 6.859375 -8.53125 C 6.578125 -8.789062 6.117188 -8.921875 5.484375 -8.921875 C 4.898438 -8.921875 4.46875 -8.820312 4.1875 -8.625 C 3.914062 -8.4375 3.78125 -8.203125 3.78125 -7.921875 C 3.78125 -7.628906 3.894531 -7.40625 4.125 -7.25 C 4.363281 -7.101562 5.265625 -6.84375 6.828125 -6.46875 C 8.421875 -6.101562 9.4375 -5.671875 9.875 -5.171875 C 10.3125 -4.671875 10.53125 -4.050781 10.53125 -3.3125 C 10.53125 -2.125 10.109375 -1.210938 9.265625 -0.578125 C 8.429688 0.046875 7.179688 0.359375 5.515625 0.359375 C 4.054688 0.359375 2.910156 0.0546875 2.078125 -0.546875 C 1.242188 -1.148438 0.765625 -2.097656 0.640625 -3.390625 L 3.53125 -3.390625 C 3.53125 -2.828125 3.707031 -2.410156 4.0625 -2.140625 C 4.425781 -1.867188 4.972656 -1.734375 5.703125 -1.734375 C 6.328125 -1.734375 6.800781 -1.828125 7.125 -2.015625 C 7.457031 -2.203125 7.625 -2.453125 7.625 -2.765625 C 7.625 -3.078125 7.503906 -3.316406 7.265625 -3.484375 C 7.023438 -3.660156 6.207031 -3.898438 4.8125 -4.203125 C 3.269531 -4.523438 2.25 -4.953125 1.75 -5.484375 C 1.25 -6.015625 1 -6.648438 1 -7.390625 C 1 -8.453125 1.378906 -9.320312 2.140625 -10 C 2.898438 -10.675781 4.023438 -11.015625 5.515625 -11.015625 C 6.972656 -11.015625 8.085938 -10.710938 8.859375 -10.109375 C 9.640625 -9.503906 10.070312 -8.617188 10.15625 -7.453125 Z M 7.390625 -7.453125 "/></g></g></g><g fill="#00bf63" fill-opacity="1"><g transform="translate(66.979987, 22.302631)"><g><path d="M 11.09375 0 L 8.265625 0 L 8.265625 -6.671875 C 8.265625 -7.328125 8.113281 -7.816406 7.8125 -8.140625 C 7.507812 -8.472656 7.046875 -8.640625 6.421875 -8.640625 C 5.722656 -8.640625 5.175781 -8.40625 4.78125 -7.9375 C 4.394531 -7.476562 4.203125 -6.882812 4.203125 -6.15625 L 4.203125 0 L 1.375 0 L 1.375 -14.484375 L 4.203125 -14.484375 L 4.203125 -9.375 L 4.25 -9.375 C 4.894531 -10.46875 5.941406 -11.015625 7.390625 -11.015625 C 8.503906 -11.015625 9.398438 -10.6875 10.078125 -10.03125 C 10.753906 -9.382812 11.09375 -8.519531 11.09375 -7.4375 Z M 11.09375 0 "/></g></g></g><g fill="#00bf63" fill-opacity="1"><g transform="translate(79.302086, 22.302631)"><g><path d="M 11.09375 0 L 8.265625 0 L 8.265625 -6.671875 C 8.265625 -7.296875 8.117188 -7.78125 7.828125 -8.125 C 7.546875 -8.46875 7.078125 -8.640625 6.421875 -8.640625 C 5.742188 -8.640625 5.203125 -8.414062 4.796875 -7.96875 C 4.398438 -7.53125 4.203125 -6.925781 4.203125 -6.15625 L 4.203125 0 L 1.375 0 L 1.375 -10.75 L 4.09375 -10.75 L 4.09375 -9.171875 L 4.125 -9.171875 C 4.800781 -10.398438 5.867188 -11.015625 7.328125 -11.015625 C 8.429688 -11.015625 9.332031 -10.703125 10.03125 -10.078125 C 10.738281 -9.453125 11.09375 -8.570312 11.09375 -7.4375 Z M 11.09375 0 "/></g></g></g><g fill="#00bf63" fill-opacity="1"><g transform="translate(91.624185, 22.302631)"><g><path d="M 8.078125 -6.4375 C 8.015625 -7.125 7.789062 -7.671875 7.40625 -8.078125 C 7.019531 -8.492188 6.515625 -8.703125 5.890625 -8.703125 C 4.554688 -8.703125 3.789062 -7.945312 3.59375 -6.4375 Z M 10.859375 -3.140625 C 10.535156 -2.035156 9.945312 -1.1875 9.09375 -0.59375 C 8.25 -0.0078125 7.265625 0.28125 6.140625 0.28125 C 4.367188 0.28125 3.015625 -0.203125 2.078125 -1.171875 C 1.148438 -2.148438 0.6875 -3.503906 0.6875 -5.234375 C 0.6875 -6.972656 1.125 -8.367188 2 -9.421875 C 2.882812 -10.484375 4.195312 -11.015625 5.9375 -11.015625 C 7.5 -11.015625 8.726562 -10.519531 9.625 -9.53125 C 10.53125 -8.539062 10.984375 -7.066406 10.984375 -5.109375 L 10.984375 -4.609375 L 3.515625 -4.609375 C 3.585938 -3.734375 3.84375 -3.078125 4.28125 -2.640625 C 4.726562 -2.203125 5.335938 -1.984375 6.109375 -1.984375 C 6.566406 -1.984375 6.960938 -2.085938 7.296875 -2.296875 C 7.640625 -2.515625 7.859375 -2.796875 7.953125 -3.140625 Z M 10.859375 -3.140625 "/></g></g></g><g fill="#00bf63" fill-opacity="1"><g transform="translate(103.1971, 22.302631)"><g><path d="M 4.53125 -10.75 L 6.28125 -10.75 L 6.28125 -8.71875 L 4.53125 -8.71875 L 4.53125 -2.703125 C 4.53125 -2.421875 4.609375 -2.234375 4.765625 -2.140625 C 4.921875 -2.054688 5.160156 -2.015625 5.484375 -2.015625 C 5.804688 -2.015625 6.070312 -2.03125 6.28125 -2.0625 L 6.28125 0.046875 C 5.875 0.109375 5.367188 0.140625 4.765625 0.140625 C 3.640625 0.140625 2.847656 -0.0234375 2.390625 -0.359375 C 1.929688 -0.703125 1.703125 -1.316406 1.703125 -2.203125 L 1.703125 -8.71875 L 0.25 -8.71875 L 0.25 -10.75 L 1.703125 -10.75 L 1.703125 -13.640625 L 4.53125 -13.640625 Z M 4.53125 -10.75 "/></g></g></g><g fill="#00bf63" fill-opacity="1"><g transform="translate(100.773932, 28.470542)"><g><path d="M 1.0625 0 L 0.484375 0 L 0.484375 -0.59375 L 1.0625 -0.59375 Z M 1.0625 0 "/></g></g><g transform="translate(102.316139, 28.470542)"><g><path d="M 2.734375 0 L 2.234375 0 L 2.234375 -1.78125 C 2.234375 -2.0625 2.1875 -2.257812 2.09375 -2.375 C 2 -2.488281 1.84375 -2.546875 1.625 -2.546875 C 1.40625 -2.546875 1.222656 -2.460938 1.078125 -2.296875 C 0.929688 -2.128906 0.859375 -1.890625 0.859375 -1.578125 L 0.859375 0 L 0.359375 0 L 0.359375 -2.90625 L 0.828125 -2.90625 L 0.828125 -2.484375 L 0.84375 -2.484375 C 1.070312 -2.816406 1.363281 -2.984375 1.71875 -2.984375 C 2.039062 -2.984375 2.289062 -2.894531 2.46875 -2.71875 C 2.644531 -2.550781 2.734375 -2.300781 2.734375 -1.96875 Z M 2.734375 0 "/></g></g><g transform="translate(105.37887, 28.470542)"><g><path d="M 2.359375 -1.6875 C 2.335938 -2 2.253906 -2.21875 2.109375 -2.34375 C 1.972656 -2.476562 1.785156 -2.546875 1.546875 -2.546875 C 1.304688 -2.546875 1.113281 -2.460938 0.96875 -2.296875 C 0.820312 -2.128906 0.742188 -1.925781 0.734375 -1.6875 Z M 2.828125 -0.90625 C 2.765625 -0.601562 2.613281 -0.359375 2.375 -0.171875 C 2.164062 0.00390625 1.890625 0.09375 1.546875 0.09375 C 1.140625 0.09375 0.816406 -0.0390625 0.578125 -0.3125 C 0.335938 -0.570312 0.21875 -0.925781 0.21875 -1.375 C 0.21875 -1.882812 0.34375 -2.28125 0.59375 -2.5625 C 0.832031 -2.84375 1.171875 -2.984375 1.609375 -2.984375 C 2.003906 -2.984375 2.3125 -2.835938 2.53125 -2.546875 C 2.75 -2.253906 2.859375 -1.835938 2.859375 -1.296875 L 0.734375 -1.296875 C 0.734375 -0.992188 0.804688 -0.757812 0.953125 -0.59375 C 1.097656 -0.425781 1.3125 -0.34375 1.59375 -0.34375 C 1.78125 -0.34375 1.945312 -0.398438 2.09375 -0.515625 C 2.238281 -0.640625 2.316406 -0.769531 2.328125 -0.90625 Z M 2.828125 -0.90625 "/></g></g><g transform="translate(108.455153, 28.470542)"><g><path d="M 0.953125 -2.5 L 0.953125 -0.609375 C 0.953125 -0.535156 0.972656 -0.476562 1.015625 -0.4375 C 1.054688 -0.394531 1.128906 -0.375 1.234375 -0.375 L 1.421875 -0.375 L 1.421875 0 C 1.242188 0.0195312 1.117188 0.03125 1.046875 0.03125 C 0.847656 0.03125 0.703125 -0.015625 0.609375 -0.109375 C 0.515625 -0.203125 0.46875 -0.359375 0.46875 -0.578125 L 0.46875 -2.5 L 0.078125 -2.5 L 0.078125 -2.90625 L 0.46875 -2.90625 L 0.46875 -3.703125 L 0.953125 -3.703125 L 0.953125 -2.90625 L 1.421875 -2.90625 L 1.421875 -2.5 Z M 0.953125 -2.5 "/></g></g></g></svg>