<?xml version="1.0" standalone="no"?>
<!DOCTYPE svg PUBLIC "-//W3C//DTD SVG 20010904//EN"
 "http://www.w3.org/TR/2001/REC-SVG-20010904/DTD/svg10.dtd">
<svg version="1.0" xmlns="http://www.w3.org/2000/svg"
 width="700.000000pt" height="700.000000pt" viewBox="0 0 700.000000 700.000000"
 preserveAspectRatio="xMidYMid meet">
<metadata>
Created by potrace 1.14, written by Peter Selinger 2001-2017
</metadata>
<g transform="translate(0.000000,700.000000) scale(0.100000,-0.100000)"
fill="#000000" stroke="none">
<path d="M1311 3661 c-298 -1407 -555 -2618 -571 -2690 l-28 -131 721 2 720 3
306 1437 c168 790 308 1439 311 1442 3 3 239 -645 525 -1439 l519 -1445 693 0
c381 0 693 4 693 8 0 11 1129 5331 1136 5355 5 16 -34 17 -715 17 -397 0 -721
-2 -721 -4 0 -2 -133 -631 -295 -1396 -162 -766 -295 -1397 -295 -1404 -1 -6
-7 0 -14 14 -7 14 -235 647 -507 1407 l-494 1383 -720 0 -720 0 -544 -2559z
m2264 379 l611 -1705 186 -3 186 -2 10 47 c6 27 169 795 362 1708 194 913 353
1661 354 1663 2 1 109 1 238 0 l235 -3 -471 -2217 -471 -2218 -335 0 -335 0
-384 1067 c-211 588 -494 1375 -629 1751 l-245 682 -186 0 -186 0 -370 -1741
c-203 -957 -372 -1744 -375 -1750 -4 -6 -99 -8 -241 -7 l-235 3 471 2218 470
2217 365 -2 364 -3 611 -1705z"/>
</g>
</svg>
